<?xml version="1.0" encoding="iso-8859-1"?>
<!-- Generator: Adobe Illustrator 19.0.0, SVG Export Plug-In . SVG Version: 6.00 Build 0)  -->
<svg version="1.1" id="Capa_1" xmlns="http://www.w3.org/2000/svg" xmlns:xlink="http://www.w3.org/1999/xlink" x="0px" y="0px"
	 viewBox="0 0 512.001 512.001" style="enable-background:new 0 0 512.001 512.001;" xml:space="preserve">
<g>
	<g>
		<g>
			<path d="M474.868,298.742c-11.581-17.488-28.57-30.702-48.371-37.622V32c0-17.673-14.327-32-32-32h-224.64
				c-0.908,0.063-1.804,0.242-2.667,0.533h-1.067c-1.149,0.522-2.197,1.245-3.093,2.133L24.364,141.333
				c-0.889,0.897-1.611,1.944-2.133,3.093v0.96c-0.3,0.897-0.479,1.829-0.533,2.773l-0.533,1.173V480c0,17.673,14.327,32,32,32
				h298.667c2.296,0.031,4.54-0.68,6.4-2.027l36.267-27.307l36.267,27.2c1.846,1.385,4.092,2.133,6.4,2.133
				c5.891,0,10.667-4.776,10.667-10.667v-69.547C492.036,402.513,504.141,342.947,474.868,298.742z M159.831,36.373v70.293
				c0,17.673-14.327,32-32,32H57.537L159.831,36.373z M341.164,490.667h-288c-5.891,0-10.667-4.776-10.667-10.667V160h85.333
				c29.455,0,53.333-23.878,53.333-53.333V21.333h213.333c5.891,0,10.667,4.776,10.667,10.667v224.64
				c-25.433-2.935-50.974,4.527-70.827,20.693l-67.84-58.24v-80.427h32V53.333h-85.333v85.333h32V224
				c0,3.118,1.364,6.08,3.733,8.107l70.933,60.373c-4.131,5.232-7.706,10.88-10.667,16.853H127.831v-32h32V192H74.497v85.333h32V320
				c0,5.891,4.776,10.667,10.667,10.667h183.787c-1.613,6.997-2.436,14.153-2.453,21.333c0,1.707,0,3.307,0,5.013l-67.413,48.32
				h-72.747c-5.891-22.816-29.163-36.536-51.978-30.645c-22.816,5.891-36.536,29.163-30.645,51.978
				c5.891,22.816,29.163,36.536,51.979,30.645c15.029-3.88,26.765-15.616,30.645-30.645h76.16c2.223-0.014,4.386-0.723,6.187-2.027
				l62.08-44.373c6.502,21.074,20.062,39.267,38.4,51.52V490.667z M234.497,117.333V74.667h42.667v42.667H234.497z M95.831,256
				v-42.667h42.667V256H95.831z M138.497,416c0,11.782-9.551,21.333-21.333,21.333c-11.782,0-21.333-9.551-21.333-21.333
				c0-11.782,9.551-21.333,21.333-21.333C128.946,394.667,138.497,404.218,138.497,416z M426.497,480l-25.6-19.2
				c-3.793-2.844-9.007-2.844-12.8,0l-25.6,19.2v-37.653c20.679,7.47,43.321,7.47,64,0V480z M394.497,426.667
				c-41.237,0-74.667-33.429-74.667-74.667c0-41.237,33.429-74.667,74.667-74.667s74.667,33.429,74.667,74.667
				C469.164,393.237,435.734,426.667,394.497,426.667z"/>
			<path d="M383.831,358.293l-24.427-24.427l-15.04,15.04l32,32c4.16,4.136,10.88,4.136,15.04,0l53.333-53.333l-15.04-15.04
				L383.831,358.293z"/>
			<rect x="351.831" y="53.333" width="21.333" height="85.333"/>
		</g>
	</g>
</g>
<g>
</g>
<g>
</g>
<g>
</g>
<g>
</g>
<g>
</g>
<g>
</g>
<g>
</g>
<g>
</g>
<g>
</g>
<g>
</g>
<g>
</g>
<g>
</g>
<g>
</g>
<g>
</g>
<g>
</g>
</svg>
